HIERARCHY
ROOT joint_Root
{
	OFFSET 0.0 0.0 0.0
	CHANNELS 6 Xposition Yposition Zposition Zrotation Xrotation Yrotation 
	JOINT Hips
	{
		OFFSET 4.5925 91.4895 -427.239
		CHANNELS 6 Xposition Yposition Zposition Zrotation Xrotation Yrotation 
		JOINT Spine
		{
			OFFSET 15.7357 0.0 0.0
			CHANNELS 6 Xposition Yposition Zposition Zrotation Xrotation Yrotation 
			JOINT Chest
			{
				OFFSET 8.98455 -0.406207 0.0
				CHANNELS 6 Xposition Yposition Zposition Zrotation Xrotation Yrotation 
				JOINT Neck
				{
					OFFSET 16.3773 0.0 0.0
					CHANNELS 6 Xposition Yposition Zposition Zrotation Xrotation Yrotation 
					JOINT Head
					{
						OFFSET 6.45672 0.0 0.0
						CHANNELS 6 Xposition Yposition Zposition Zrotation Xrotation Yrotation 
						End Site
						{
							OFFSET 0.0 0.0 0.0
						}
					}
				}
				JOINT Shoulder_L
				{
					OFFSET 12.9942 -0.242716 4.98039
					CHANNELS 6 Xposition Yposition Zposition Zrotation Xrotation Yrotation 
					JOINT UpperArm_L
					{
						OFFSET 5.34809 0.0 0.0
						CHANNELS 6 Xposition Yposition Zposition Zrotation Xrotation Yrotation 
						JOINT LowerArm_L
						{
							OFFSET 24.3286 1.87007e-05 0.0
							CHANNELS 6 Xposition Yposition Zposition Zrotation Xrotation Yrotation 
							JOINT Hand_L
							{
								OFFSET 22.2916 0.0 0.0
								CHANNELS 6 Xposition Yposition Zposition Zrotation Xrotation Yrotation 
								End Site
								{
									OFFSET 0.0 0.0 0.0
								}
							}
						}
					}
				}
				JOINT Shoulder_R
				{
					OFFSET 12.9945 -0.242716 -4.98039
					CHANNELS 6 Xposition Yposition Zposition Zrotation Xrotation Yrotation 
					JOINT UpperArm_R
					{
						OFFSET -5.34813 0.0 0.0
						CHANNELS 6 Xposition Yposition Zposition Zrotation Xrotation Yrotation 
						JOINT LowerArm_R
						{
							OFFSET -24.3289 0.000322201 0.0
							CHANNELS 6 Xposition Yposition Zposition Zrotation Xrotation Yrotation 
							JOINT Hand_R
							{
								OFFSET -22.2915 -0.000108084 0.0
								CHANNELS 6 Xposition Yposition Zposition Zrotation Xrotation Yrotation 
								End Site
								{
									OFFSET 0.0 0.0 0.0
								}
							}
						}
					}
				}
			}
		}
		JOINT UpperLeg_L
		{
			OFFSET -2.19248 -6.46944 0.0
			CHANNELS 6 Xposition Yposition Zposition Zrotation Xrotation Yrotation 
			JOINT LowerLeg_L
			{
				OFFSET 39.0811 0.0 -1.23785e-05
				CHANNELS 6 Xposition Yposition Zposition Zrotation Xrotation Yrotation 
				JOINT Foot_L
				{
					OFFSET 40.9854 0.0 -1.26872e-05
					CHANNELS 6 Xposition Yposition Zposition Zrotation Xrotation Yrotation 
					JOINT Toes_L
					{
						OFFSET 11.7543 0.0 0.0
						CHANNELS 6 Xposition Yposition Zposition Zrotation Xrotation Yrotation 
						End Site
						{
							OFFSET 0.0 0.0 0.0
						}
					}
				}
			}
		}
		JOINT UpperLeg_R
		{
			OFFSET -2.19251 6.46944 0.0
			CHANNELS 6 Xposition Yposition Zposition Zrotation Xrotation Yrotation 
			JOINT LowerLeg_R
			{
				OFFSET -39.0811 -0.00228153 -0.0401928
				CHANNELS 6 Xposition Yposition Zposition Zrotation Xrotation Yrotation 
				JOINT Foot_R
				{
					OFFSET -40.9854 0.0 0.0
					CHANNELS 6 Xposition Yposition Zposition Zrotation Xrotation Yrotation 
					JOINT Toes_R
					{
						OFFSET -11.7543 0.0 0.0
						CHANNELS 6 Xposition Yposition Zposition Zrotation Xrotation Yrotation 
						End Site
						{
							OFFSET 0.0 0.0 0.0
						}
					}
				}
			}
		}
	}
}
MOTION
Frames:	8
Frame Time:	0.0333333
0.000000 0.000000 0.000000 0.000000 0.000000 -0.000000 -3.096610 78.835200 416.337000 -85.039400 10.304100 168.320000 15.735700 0.000005 -0.000001 99.042200 79.742900 -95.734200 8.984550 -0.406207 -0.000000 12.419800 3.328190 6.253970 16.377300 -0.000001 -0.000001 -2.713950 2.151750 0.093580 6.456720 -0.000001 -0.000000 -6.795070 3.431640 -3.643870 12.994200 -0.242716 4.980390 -90.096200 0.295694 -72.002800 5.348090 -0.000007 -0.000001 -65.251400 30.814200 10.946300 24.328600 0.000019 0.000005 29.581100 38.404300 -42.421400 22.291600 -0.000001 0.000005 -11.799500 5.557250 -9.052230 12.994500 -0.242716 -4.980390 89.161800 8.001720 -84.005400 -5.348130 -0.000001 -0.000004 -51.328800 18.163200 -45.148500 -24.328900 0.000322 -0.000009 -9.339240 0.342241 -92.103800 -22.291500 -0.000108 -0.000004 19.694600 5.657290 -15.744200 -2.192480 -6.469440 -0.000000 -175.091000 -3.947380 -49.303000 39.081100 -0.000007 -0.000012 -0.402344 -0.389835 134.096000 40.985400 -0.000006 -0.000013 -11.454700 6.816100 5.778730 11.754300 -0.000000 0.000003 -0.000421 -0.006808 -16.854000 -2.192510 6.469440 -0.000001 -171.263000 7.032760 151.868000 -39.081100 -0.002282 -0.040193 -0.214872 0.107301 63.798100 -40.985400 0.000008 0.000006 11.528200 -0.495864 -97.470000 -11.754300 -0.000006 -0.000006 -0.005588 -0.067043 -19.301300
0.000000 0.000000 0.000000 0.000000 0.000000 -0.000000 -3.825300 80.630400 407.184000 -88.442400 15.867700 168.161000 15.735700 0.000005 -0.000001 111.707000 79.734600 -110.525000 8.984550 -0.406207 -0.000000 11.302800 7.570440 1.616920 16.377300 -0.000001 -0.000001 -2.332730 1.419760 0.944635 6.456720 -0.000001 -0.000000 -6.251650 0.730970 -3.269050 12.994200 -0.242716 4.980390 -90.022400 0.059397 -69.026800 5.348090 -0.000007 -0.000001 -59.154500 34.497200 19.722500 24.328600 0.000019 0.000005 22.203200 27.073700 -41.896600 22.291600 -0.000001 0.000005 -10.438500 5.563480 -9.360130 12.994500 -0.242716 -4.980390 89.777700 2.550900 -85.017300 -5.348130 -0.000001 -0.000004 -53.152900 12.342000 -57.602800 -24.328900 0.000322 -0.000009 -7.925430 1.633840 -101.553000 -22.291500 -0.000108 -0.000004 19.534900 5.641580 -14.270800 -2.192480 -6.469440 -0.000000 178.657000 -5.327340 -57.341800 39.081100 -0.000007 -0.000012 -0.258290 -0.208266 128.883000 40.985400 -0.000006 -0.000013 -5.664950 6.560580 -4.903660 11.754300 -0.000000 0.000003 -0.001311 -0.019737 -17.379300 -2.192510 6.469440 -0.000001 -179.259000 7.633610 161.124000 -39.081100 -0.002282 -0.040193 0.124549 -0.082529 55.775500 -40.985400 0.000008 0.000006 13.269500 5.043570 -95.581600 -11.754300 -0.000006 -0.000006 -0.018476 -0.158694 -23.054000
0.000000 0.000000 0.000000 0.000000 0.000000 -0.000000 -4.378780 84.624400 397.136000 -91.952100 17.009800 166.818000 15.735700 0.000005 -0.000001 119.547000 80.464500 -120.237000 8.984550 -0.406207 -0.000000 8.970680 9.348920 -2.117380 16.377300 -0.000001 -0.000001 -1.228260 0.404952 1.679150 6.456720 -0.000001 -0.000000 -5.487900 -1.651170 -2.022070 12.994200 -0.242716 4.980390 -88.792000 -2.922200 -67.527800 5.348090 -0.000007 -0.000001 -57.072500 31.801400 26.594200 24.328600 0.000019 0.000005 13.437200 14.866300 -42.966800 22.291600 -0.000001 0.000005 -10.244600 5.536170 -8.069510 12.994500 -0.242716 -4.980390 90.147200 -1.614580 -84.796000 -5.348130 -0.000001 -0.000004 -55.085500 8.451850 -62.092600 -24.328900 0.000322 -0.000009 -11.345100 3.983550 -109.096000 -22.291500 -0.000108 -0.000004 18.215900 5.614120 -12.190000 -2.192480 -6.469440 -0.000000 173.594000 -1.774600 -60.792900 39.081100 -0.000007 -0.000012 -0.163744 -0.081599 116.493000 40.985400 -0.000006 -0.000013 3.877700 2.286640 -24.257700 11.754300 -0.000000 0.000003 -0.000873 -0.013584 -17.129300 -2.192510 6.469440 -0.000001 173.844000 9.068920 169.884000 -39.081100 -0.002282 -0.040193 0.079947 -0.082588 42.874400 -40.985400 0.000008 0.000006 12.440800 10.460900 -81.182600 -11.754300 -0.000006 -0.000006 -0.099042 -0.442174 -35.023200
0.000000 0.000000 0.000000 0.000000 0.000000 -0.000000 -4.671550 89.420500 387.222000 -94.039800 16.986800 164.599000 15.735700 0.000005 -0.000001 126.896000 81.282500 -128.985000 8.984550 -0.406207 -0.000000 6.455250 10.461200 -4.772730 16.377300 -0.000001 -0.000001 -0.366459 -1.010790 1.865410 6.456720 -0.000001 -0.000000 -4.460470 -3.936080 -0.311403 12.994200 -0.242716 4.980390 -87.159200 -7.035490 -67.944600 5.348090 -0.000007 -0.000001 -58.953600 27.289100 33.214900 24.328600 0.000019 0.000005 12.918300 11.853200 -48.157100 22.291600 -0.000001 0.000005 -9.123180 5.533680 -7.958940 12.994500 -0.242716 -4.980390 90.342300 -3.355860 -84.171100 -5.348130 -0.000001 -0.000004 -54.922600 6.620300 -62.603100 -24.328900 0.000322 -0.000009 -10.073900 4.651880 -114.539000 -22.291500 -0.000108 -0.000004 14.699300 5.579380 -10.170200 -2.192480 -6.469440 -0.000000 172.048000 1.925170 -61.011800 39.081100 -0.000007 -0.000012 -0.017473 -0.002822 99.205200 40.985400 -0.000006 -0.000013 7.171590 -6.972350 -42.930200 11.754300 -0.000000 0.000003 -0.002331 -0.032786 -17.910000 -2.192510 6.469440 -0.000001 169.357000 14.720700 175.908000 -39.081100 -0.002282 -0.040193 0.079617 -0.130292 30.358600 -40.985400 0.000008 0.000006 11.117600 18.174400 -57.265800 -11.754300 -0.000006 -0.000006 -0.295235 -0.783855 -51.049600
0.000000 0.000000 0.000000 0.000000 0.000000 -0.000000 -4.412570 93.289600 377.414000 -92.544000 15.828300 165.027000 15.735700 0.000005 -0.000001 128.739000 81.070800 -130.816000 8.984550 -0.406207 -0.000000 6.465430 11.166600 -4.792940 16.377300 -0.000001 -0.000001 0.130137 -2.063050 1.718240 6.456720 -0.000001 -0.000000 -4.579250 -5.897100 0.990042 12.994200 -0.242716 4.980390 -86.036900 -9.829780 -67.912700 5.348090 -0.000007 -0.000001 -61.439100 24.270400 37.792900 24.328600 0.000019 0.000005 11.245300 8.661430 -52.864900 22.291600 -0.000001 0.000005 -7.735460 5.518740 -7.309430 12.994500 -0.242716 -4.980390 90.370300 -3.325030 -83.642700 -5.348130 -0.000001 -0.000004 -52.037200 6.932210 -62.584100 -24.328900 0.000322 -0.000009 -9.472120 4.804030 -116.655000 -22.291500 -0.000108 -0.000004 13.529000 5.552580 -8.827360 -2.192480 -6.469440 -0.000000 175.141000 3.807390 -55.487800 39.081100 -0.000007 -0.000012 0.081305 -0.015229 79.386300 40.985400 -0.000006 -0.000013 8.608170 -7.943410 -54.215800 11.754300 -0.000000 0.000003 -0.001927 -0.027807 -17.707500 -2.192510 6.469440 -0.000001 166.347000 24.584700 -176.266000 -39.081100 -0.002282 -0.040193 0.095673 -0.242707 20.832600 -40.985400 0.000008 0.000006 -0.366552 25.149100 -32.076600 -11.754300 -0.000006 -0.000006 -0.079876 -0.391595 -32.830200
0.000000 0.000000 0.000000 0.000000 0.000000 -0.000000 -4.013180 95.697800 367.615000 -91.647000 16.077100 165.986000 15.735700 0.000005 -0.000001 130.322000 80.695900 -132.564000 8.984550 -0.406207 -0.000000 6.776430 12.023300 -5.205290 16.377300 -0.000001 -0.000001 0.502129 -2.263180 1.026340 6.456720 -0.000001 -0.000000 -4.564860 -7.326350 1.985910 12.994200 -0.242716 4.980390 -85.423200 -10.939600 -67.128800 5.348090 -0.000007 -0.000001 -62.983300 22.884700 40.099400 24.328600 0.000019 0.000005 9.127540 5.901380 -57.384800 22.291600 -0.000001 0.000005 -7.217960 5.503390 -6.671010 12.994500 -0.242716 -4.980390 90.358000 -3.088680 -83.385200 -5.348130 -0.000001 -0.000004 -49.306500 9.435780 -61.393100 -24.328900 0.000322 -0.000009 -9.062970 4.487300 -116.126000 -22.291500 -0.000108 -0.000004 12.375200 5.533280 -7.937590 -2.192480 -6.469440 -0.000000 176.716000 2.301680 -47.426600 39.081100 -0.000007 -0.000012 0.075615 -0.050033 56.506000 40.985400 -0.000006 -0.000013 6.108970 -4.599540 -60.569500 11.754300 -0.000000 0.000003 -0.001900 -0.027461 -17.693400 -2.192510 6.469440 -0.000001 162.026000 28.247000 -170.121000 -39.081100 -0.002282 -0.040193 0.146883 -0.395449 19.952800 -40.985400 0.000008 0.000006 -5.066940 22.791800 -25.391800 -11.754300 -0.000006 -0.000006 -0.018799 -0.160546 -23.130200
0.000000 0.000000 0.000000 0.000000 0.000000 -0.000000 -3.402280 96.472000 357.900000 -89.090600 17.373500 166.677000 15.735700 0.000005 -0.000001 133.883000 80.172000 -135.685000 8.984550 -0.406207 -0.000000 6.765380 13.599100 -4.419070 16.377300 -0.000001 -0.000001 0.563607 -2.014420 0.585823 6.456720 -0.000001 -0.000000 -3.849510 -7.939950 2.055870 12.994200 -0.242716 4.980390 -85.515600 -10.197700 -66.107100 5.348090 -0.000007 -0.000001 -63.341200 21.190900 39.843800 24.328600 0.000019 0.000005 9.769370 5.514490 -60.831500 22.291600 -0.000001 0.000005 -6.730980 5.489150 -6.102450 12.994500 -0.242716 -4.980390 90.299300 -2.701940 -83.675900 -5.348130 -0.000001 -0.000004 -47.667600 13.701300 -58.274100 -24.328900 0.000322 -0.000009 -7.794910 3.503560 -114.055000 -22.291500 -0.000108 -0.000004 11.797800 5.517100 -7.237510 -2.192480 -6.469440 -0.000000 178.247000 -3.234200 -37.727700 39.081100 -0.000007 -0.000012 0.021497 -0.035346 31.306600 40.985400 -0.000006 -0.000013 2.985410 0.664049 -64.488300 11.754300 -0.000000 0.000003 -0.002017 -0.028932 -17.753200 -2.192510 6.469440 -0.000001 162.311000 22.092000 -168.287000 -39.081100 -0.002282 -0.040193 0.230573 -0.451925 26.697300 -40.985400 0.000008 0.000006 -2.044130 18.323900 -25.077900 -11.754300 -0.000006 -0.000006 -0.015943 -0.143676 -22.436600
0.000000 0.000000 0.000000 0.000000 0.000000 -0.000000 -2.554610 95.849800 347.825000 -85.472300 18.307300 167.989000 15.735700 0.000005 -0.000001 136.041000 79.610100 -136.931000 8.984550 -0.406207 -0.000000 6.956240 14.915300 -2.697700 16.377300 -0.000001 -0.000001 0.751561 -1.523300 0.676563 6.456720 -0.000001 -0.000000 -3.101140 -8.008280 2.312140 12.994200 -0.242716 4.980390 -85.925900 -8.979940 -65.471700 5.348090 -0.000007 -0.000001 -63.534600 16.800900 37.364300 24.328600 0.000019 0.000005 12.429700 6.539710 -62.671000 22.291600 -0.000001 0.000005 -7.190200 5.481260 -5.796450 12.994500 -0.242716 -4.980390 90.241400 -2.411130 -84.281800 -5.348130 -0.000001 -0.000004 -48.606700 19.263900 -52.584900 -24.328900 0.000322 -0.000009 -6.752580 2.534670 -110.481000 -22.291500 -0.000108 -0.000004 11.793900 5.511680 -7.008900 -2.192480 -6.469440 -0.000000 -179.070000 -9.030790 -27.639900 39.081100 -0.000007 -0.000012 -0.004790 0.029068 9.356130 40.985400 -0.000006 -0.000013 -1.972120 8.279110 -68.621400 11.754300 -0.000000 0.000003 -0.003043 -0.041091 -18.247900 -2.192510 6.469440 -0.000001 165.087000 13.986800 -166.212000 -39.081100 -0.002282 -0.040193 0.325463 -0.452959 35.423400 -40.985400 0.000008 0.000006 -0.946369 13.574800 -23.690000 -11.754300 -0.000006 -0.000006 -0.015883 -0.143309 -22.421500
